<svg id="Layer_1" data-name="Layer 1" xmlns="http://www.w3.org/2000/svg" viewBox="0 0 650.37 129.04"><defs><style>.cls-1{fill:#8fc6f9;}.cls-2{fill:#c5e9ff;}.cls-3{fill:#fff;}.cls-4{fill:#e96344;}.cls-5{fill:#bc392b;}.cls-6{fill:#28364b;}</style></defs><rect class="cls-1" x="19.25" y="28.63" width="81.1" height="81.1" transform="translate(66.43 -22.02) rotate(45)"/><rect class="cls-2" x="52.91" y="15.1" width="15.39" height="15.39" transform="translate(87.34 81.78) rotate(-135)"/><rect class="cls-2" x="7.14" y="60.87" width="15.39" height="15.39" transform="translate(-23.15 127.55) rotate(-135)"/><rect class="cls-2" x="53.18" y="108.28" width="15.39" height="15.39" transform="translate(21.92 241.03) rotate(-135)"/><polygon class="cls-3" points="68.28 73.5 59.37 82.41 46.09 69.13 59.37 55.84 68.28 64.76 79.55 53.49 79.55 53.49 59.91 33.85 24.63 69.13 59.91 104.41 79.55 84.77 79.55 84.77 68.28 73.5"/><polygon class="cls-4" points="90.6 42.34 79.51 53.38 95.24 69.11 79.5 84.86 90.49 95.81 117.49 69.18 90.6 42.34"/><polygon class="cls-5" points="80.97 84.58 86.42 90.43 105.49 69.59 94.59 69.86 80.97 84.58"/><path class="cls-6" d="M160.49,55.29c-15.25,0-24.33-10.27-24.33-27.08,0-16.45,9.31-26.94,24.33-26.94,10.35,0,19.13,4.69,21.66,18.08a.68.68,0,0,1-.67.82h-5.21a1,1,0,0,1-1-.82C173.66,10.87,168,7,160.35,7c-10.87,0-17,8.19-17,21.21,0,14.06,6.4,21.35,17,21.35,8.55,0,14.13-4.69,15.32-13.47a1,1,0,0,1,.9-.82h5.28a.76.76,0,0,1,.74.82C180.58,49.19,172.33,55.29,160.49,55.29Z"/><path class="cls-6" d="M212.8,55.29c-15,0-24.85-10.72-24.85-26.94,0-16.66,9.82-27.08,24.92-27.08s24.86,10.34,24.86,27.08C237.73,44.65,227.83,55.29,212.8,55.29Zm.07-5.73c11,0,17.71-8,17.71-21.21S224,7,212.8,7s-17.71,8-17.71,21.35S201.86,49.56,212.87,49.56Z"/><path class="cls-6" d="M271.35,45.32l-8-12.28H252.23l.3,20.46a.82.82,0,0,1-.82.82h-5.58a.82.82,0,0,1-.82-.82l.37-26-.37-24.48a.82.82,0,0,1,.82-.82h18.08c11.9,0,19.12,5.13,19.12,15.33,0,8.33-4.83,13.24-12.57,14.88l13.46,21.2a.42.42,0,0,1-.37.67h-6.4a1.66,1.66,0,0,1-1.26-.67ZM264.88,7.74H252.45l-.29,19.87H265c6.92,0,11.61-2.9,11.61-9.9C276.56,11.09,272.25,7.74,264.88,7.74Z"/><path class="cls-6" d="M298.06,32.6l.08,20.9a.83.83,0,0,1-.82.82h-5.06a.82.82,0,0,1-.82-.82l.37-25.59-.37-24.85a.82.82,0,0,1,.82-.82h6.55a1.66,1.66,0,0,1,1.26.67l27.16,42.48-.08-4.54L327,24.49l-.08-21.43a.82.82,0,0,1,.82-.82h5.06a.82.82,0,0,1,.82.82l-.37,24.85.29,25.59a.82.82,0,0,1-.82.82h-6.84a1.68,1.68,0,0,1-1.27-.67L297.76,11.76l.15,5.58Z"/><path class="cls-6" d="M343.74,54.32a.83.83,0,0,1-.82-.82l.38-26-.38-24.4a.83.83,0,0,1,.82-.82h31.18a.83.83,0,0,1,.82.82V7a.83.83,0,0,1-.82.82H350.14l-.37,15.92h23.36a.82.82,0,0,1,.82.82V28.5a.82.82,0,0,1-.82.82H349.77l.37,19.42h25.37a.82.82,0,0,1,.82.82V53.5a.82.82,0,0,1-.82.82Z"/><path class="cls-6" d="M410.18,45.32l-8-12.28H391.06l.3,20.46a.82.82,0,0,1-.82.82H385a.82.82,0,0,1-.82-.82l.37-26-.37-24.48a.82.82,0,0,1,.82-.82H403c11.91,0,19.12,5.13,19.12,15.33,0,8.33-4.83,13.24-12.57,14.88l13.47,21.2a.42.42,0,0,1-.38.67h-6.4a1.66,1.66,0,0,1-1.26-.67ZM403.71,7.74H391.29L391,27.61h12.79c6.92,0,11.61-2.9,11.61-9.9C415.39,11.09,411.08,7.74,403.71,7.74Z"/><path class="cls-6" d="M449,55.21c-13.17,0-20.91-6.25-21.51-18a.83.83,0,0,1,.82-.82h5.51a1,1,0,0,1,.89.82c.67,7.74,4.46,12.42,14.43,12.42,7.82,0,13.32-2.82,13.32-9.67,0-14.43-33.92-3.87-33.92-23.66,0-9.52,7.58-14.95,19-14.95,12,0,19.34,5,20.53,15.55a.71.71,0,0,1-.74.81h-5.58a.94.94,0,0,1-.89-.81c-.67-6.63-5.06-9.9-13.4-9.9-7.07,0-12.12,2.68-12.12,8.63,0,13.39,33.92,3,33.92,23.44C469.18,49.78,460.7,55.21,449,55.21Z"/><path class="cls-6" d="M486.52,54.32a.82.82,0,0,1-.82-.82l.45-25-.38-20.61H471.56a.82.82,0,0,1-.81-.82v-4a.82.82,0,0,1,.81-.82H507.2a.82.82,0,0,1,.82.82v4a.82.82,0,0,1-.82.82H493l-.37,20.61.45,25a.83.83,0,0,1-.82.82Z"/><path class="cls-6" d="M533.24,55.29c-15,0-24.85-10.72-24.85-26.94,0-16.66,9.82-27.08,24.93-27.08,14.95,0,24.85,10.34,24.85,27.08C558.17,44.65,548.27,55.29,533.24,55.29Zm.08-5.73c11,0,17.71-8,17.71-21.21S544.4,7,533.24,7s-17.71,8-17.71,21.35S522.31,49.56,533.32,49.56Z"/><path class="cls-6" d="M570.74,32.6l.07,20.9a.82.82,0,0,1-.82.82h-5.06a.83.83,0,0,1-.82-.82l.38-25.59-.38-24.85a.83.83,0,0,1,.82-.82h6.55a1.64,1.64,0,0,1,1.26.67L599.9,45.39l-.07-4.54-.15-16.36-.07-21.43a.82.82,0,0,1,.81-.82h5.06a.82.82,0,0,1,.82.82l-.37,24.85.3,25.59a.82.82,0,0,1-.82.82h-6.85a1.66,1.66,0,0,1-1.26-.67L570.44,11.76l.15,5.58Z"/><path class="cls-6" d="M616.42,54.32a.82.82,0,0,1-.82-.82l.37-26-.37-24.4a.82.82,0,0,1,.82-.82h31.17a.82.82,0,0,1,.82.82V7a.82.82,0,0,1-.82.82H622.82l-.38,15.92h23.37a.83.83,0,0,1,.82.82V28.5a.83.83,0,0,1-.82.82H622.44l.38,19.42h25.37a.82.82,0,0,1,.82.82V53.5a.82.82,0,0,1-.82.82Z"/><polygon class="cls-5" points="90.6 43.08 115.84 67.69 106.67 68.32 86.51 48.43 90.6 43.08"/><path class="cls-6" d="M155.31,109.51a.62.62,0,0,1-.57-.38l-2.58-7.55H141.24l-2.54,7.55a.58.58,0,0,1-.54.38H135.4a.28.28,0,0,1-.27-.38l9.22-25.8a.63.63,0,0,1,.57-.38h3.79a.64.64,0,0,1,.57.38l9.14,25.8a.27.27,0,0,1-.26.38Zm-4.17-10.93-4.48-13-4.4,13Z"/><path class="cls-6" d="M174.58,104.92l-4.06-6.26h-5.69l.15,10.43a.42.42,0,0,1-.42.42h-2.84a.42.42,0,0,1-.42-.42l.19-13.24-.19-12.48a.42.42,0,0,1,.42-.42h9.22c6.06,0,9.74,2.62,9.74,7.82,0,4.25-2.46,6.75-6.41,7.58l6.87,10.81a.22.22,0,0,1-.19.35h-3.26a.84.84,0,0,1-.65-.35Zm-3.3-19.16h-6.34l-.15,10.13h6.53c3.52,0,5.91-1.48,5.91-5C177.23,87.47,175,85.76,171.28,85.76Z"/><path class="cls-6" d="M190.13,109.51a.42.42,0,0,1-.42-.42l.23-12.75-.19-10.5H182.5a.42.42,0,0,1-.41-.42v-2a.42.42,0,0,1,.41-.42h18.17a.42.42,0,0,1,.42.42v2a.42.42,0,0,1-.42.42h-7.24l-.19,10.5.23,12.75a.42.42,0,0,1-.42.42Z"/><path class="cls-6" d="M230,109.51a.88.88,0,0,1-.68-.31l-2.17-2.5A11.35,11.35,0,0,1,219.1,110c-4.7,0-9.06-2.54-9.06-7.51,0-4.13,3-6.33,6.22-8.12-1.71-2.08-2.88-4.09-2.88-6.33,0-3.07,2.39-5.65,6.82-5.65,3.72,0,6.6,2.08,6.64,5.57s-2.92,5.12-6,6.83c.87,1,1.94,2.2,3.15,3.6l3.15,3.57a15.8,15.8,0,0,0,1.4-5.8.49.49,0,0,1,.46-.42h2.35a.37.37,0,0,1,.38.42,17.68,17.68,0,0,1-2.54,8.11l4.4,5a.19.19,0,0,1-.15.31Zm-10.66-2.17a7.9,7.9,0,0,0,6-2.69l-5.5-6.3c-.64-.72-1.29-1.4-1.89-2-2.47,1.44-4.48,3.18-4.48,6C213.49,105.56,215.84,107.34,219.37,107.34Zm-2.69-19.27c0,1.45.68,2.62,2.46,4.75,2.62-1.37,4.74-2.74,4.74-4.94,0-2-1.4-3.26-3.64-3.26S216.68,85.72,216.68,88.07Z"/><path class="cls-6" d="M255.25,110c-7.78,0-12.41-5.23-12.41-13.81,0-8.38,4.75-13.73,12.41-13.73,5.27,0,9.75,2.39,11,9.22a.35.35,0,0,1-.34.42h-2.66a.52.52,0,0,1-.49-.42c-.84-4.33-3.72-6.3-7.63-6.3-5.54,0-8.68,4.17-8.68,10.81,0,7.17,3.26,10.89,8.68,10.89,4.37,0,7.21-2.39,7.82-6.87a.47.47,0,0,1,.45-.41h2.7a.38.38,0,0,1,.37.41C265.49,106.89,261.28,110,255.25,110Z"/><path class="cls-6" d="M283.43,104.92l-4.06-6.26h-5.69l.15,10.43a.42.42,0,0,1-.42.42h-2.84a.42.42,0,0,1-.42-.42l.19-13.24-.19-12.48a.42.42,0,0,1,.42-.42h9.22c6.07,0,9.75,2.62,9.75,7.82,0,4.25-2.47,6.75-6.41,7.58L290,109.16a.22.22,0,0,1-.19.35h-3.26a.84.84,0,0,1-.65-.35Zm-3.3-19.16h-6.34l-.15,10.13h6.53c3.52,0,5.91-1.48,5.91-5C286.08,87.47,283.88,85.76,280.13,85.76Z"/><path class="cls-6" d="M312.44,109.51a.63.63,0,0,1-.57-.38l-2.57-7.55H298.37l-2.54,7.55a.57.57,0,0,1-.53.38h-2.77a.29.29,0,0,1-.27-.38l9.22-25.8a.64.64,0,0,1,.57-.38h3.79a.63.63,0,0,1,.57.38l9.14,25.8a.26.26,0,0,1-.26.38Zm-4.17-10.93-4.48-13-4.39,13Z"/><path class="cls-6" d="M318.85,109.51a.42.42,0,0,1-.42-.42l.19-12.86-.19-12.86a.42.42,0,0,1,.42-.42h15.44a.42.42,0,0,1,.42.42v2a.42.42,0,0,1-.42.42H322.11l-.19,9.29h11.72a.42.42,0,0,1,.42.42v2a.42.42,0,0,1-.42.42H321.92l.19,11.15a.42.42,0,0,1-.41.42Z"/><path class="cls-6" d="M344.72,109.51a.42.42,0,0,1-.42-.42l.23-12.75-.19-10.5h-7.25a.42.42,0,0,1-.41-.42v-2a.42.42,0,0,1,.41-.42h18.17a.42.42,0,0,1,.42.42v2a.42.42,0,0,1-.42.42H348l-.19,10.5.23,12.75a.42.42,0,0,1-.42.42Z"/><path class="cls-6" d="M376.65,110c-7.77,0-12.4-5.23-12.4-13.81,0-8.38,4.74-13.73,12.4-13.73,5.28,0,9.75,2.39,11,9.22a.34.34,0,0,1-.34.42H384.7a.53.53,0,0,1-.5-.42c-.83-4.33-3.72-6.3-7.62-6.3-5.54,0-8.69,4.17-8.69,10.81,0,7.17,3.26,10.89,8.69,10.89,4.36,0,7.2-2.39,7.81-6.87a.48.48,0,0,1,.46-.41h2.69a.38.38,0,0,1,.38.41C386.9,106.89,382.68,110,376.65,110Z"/><path class="cls-6" d="M403.32,110c-7.63,0-12.67-5.46-12.67-13.73,0-8.5,5-13.81,12.7-13.81S416,87.73,416,96.27C416,104.57,411,110,403.32,110Zm0-2.92c5.62,0,9-4.06,9-10.81S409,85.38,403.32,85.38s-9,4.1-9,10.89S397.74,107.08,403.35,107.08Z"/><path class="cls-6" d="M420.31,109.51a.42.42,0,0,1-.42-.42l.19-13.47-.19-12.25a.42.42,0,0,1,.42-.42h2.84a.42.42,0,0,1,.42.42l-.19,12.06.19,11.23h11.61a.42.42,0,0,1,.41.42v2a.42.42,0,0,1-.41.42Z"/><path class="cls-6" d="M438.89,109.51a.42.42,0,0,1-.42-.42l.19-13.47-.19-12.25a.42.42,0,0,1,.42-.42h2.85a.42.42,0,0,1,.41.42L442,95.43l.19,11.23h11.61a.42.42,0,0,1,.42.42v2a.42.42,0,0,1-.42.42Z"/><path class="cls-6" d="M475.91,109.51a.62.62,0,0,1-.57-.38l-2.58-7.55H461.84l-2.55,7.55a.56.56,0,0,1-.53.38H456a.28.28,0,0,1-.26-.38L465,83.33a.63.63,0,0,1,.57-.38h3.79a.64.64,0,0,1,.57.38l9.14,25.8a.27.27,0,0,1-.27.38Zm-4.17-10.93-4.48-13-4.4,13Z"/><path class="cls-6" d="M492.37,109.51H482.32a.42.42,0,0,1-.42-.42l.19-13.24-.19-12.48a.42.42,0,0,1,.42-.42h10c5.35,0,9.07,2.16,9.07,6.38,0,3.41-1.79,5.23-5,6,4,.87,5.73,3.19,5.76,6.3C502.19,107.27,497.68,109.51,492.37,109.51Zm-7-15.37h6.9c3.42,0,5.58-1.21,5.58-4.17s-2.28-4.32-5.58-4.32h-6.71Zm.19,12.64h6.71c3.72,0,6.34-1.33,6.34-5.13,0-3.49-3-4.81-6.34-4.81h-6.9Z"/><path class="cls-6" d="M517.93,110c-7.62,0-12.67-5.46-12.67-13.73,0-8.5,5-13.81,12.71-13.81s12.67,5.27,12.67,13.81C530.64,104.57,525.59,110,517.93,110Zm0-2.92c5.61,0,9-4.06,9-10.81s-3.38-10.89-9.07-10.89-9,4.1-9,10.89S512.36,107.08,518,107.08Z"/><path class="cls-6" d="M547.78,104.92l-4.06-6.26H538l.15,10.43a.42.42,0,0,1-.41.42h-2.85a.42.42,0,0,1-.42-.42l.19-13.24-.19-12.48a.42.42,0,0,1,.42-.42h9.22c6.07,0,9.75,2.62,9.75,7.82,0,4.25-2.47,6.75-6.41,7.58l6.86,10.81a.22.22,0,0,1-.19.35h-3.26a.82.82,0,0,1-.64-.35Zm-3.3-19.16h-6.33L538,95.89h6.53c3.53,0,5.92-1.48,5.92-5C550.44,87.47,548.24,85.76,544.48,85.76Z"/><path class="cls-6" d="M576.8,109.51a.61.61,0,0,1-.57-.38l-2.58-7.55H562.72l-2.54,7.55a.56.56,0,0,1-.53.38h-2.77a.28.28,0,0,1-.26-.38l9.21-25.8a.65.65,0,0,1,.57-.38h3.8a.65.65,0,0,1,.57.38l9.14,25.8a.27.27,0,0,1-.27.38Zm-4.18-10.93-4.47-13-4.4,13Z"/><path class="cls-6" d="M586,109.51a.42.42,0,0,1-.42-.42l.23-12.75-.19-10.5h-7.24a.42.42,0,0,1-.42-.42v-2a.42.42,0,0,1,.42-.42h18.17a.42.42,0,0,1,.41.42v2a.42.42,0,0,1-.41.42h-7.25l-.19,10.5.23,12.75a.42.42,0,0,1-.42.42Z"/><path class="cls-6" d="M600.57,109.51a.42.42,0,0,1-.41-.42L600.35,96l-.19-12.63a.42.42,0,0,1,.41-.42h2.81a.42.42,0,0,1,.42.42L603.61,96l.19,13.09a.42.42,0,0,1-.42.42Z"/><path class="cls-6" d="M620.68,109.13a.62.62,0,0,1-.57.38h-3.68a.62.62,0,0,1-.57-.38l-9-25.8a.28.28,0,0,1,.27-.38h3.07a.58.58,0,0,1,.53.38l7.7,23.6,7.66-23.6a.59.59,0,0,1,.53-.38h2.66a.26.26,0,0,1,.26.38Z"/><path class="cls-6" d="M632.85,109.51a.42.42,0,0,1-.42-.42l.19-13.28-.19-12.44a.42.42,0,0,1,.42-.42h15.89a.42.42,0,0,1,.42.42v2a.42.42,0,0,1-.42.42H636.11l-.19,8.12h11.91a.42.42,0,0,1,.42.41v2a.42.42,0,0,1-.42.42H635.92l.19,9.9h12.94a.41.41,0,0,1,.41.42v2a.41.41,0,0,1-.41.42Z"/><path class="cls-6" d="M118.11,67.5,60.4,10.24,1.63,69,60.4,127.77l58.34-57.91H649.46V67.5ZM60.88,102.44,27.39,69.09l32.9-33.56,18,17.85-9.45,9.45L60,54,45,69l15,15,8.86-8.86,9.53,9.53Zm0,3.54,3.6,3.59-3.84,3.87-3.58-3.55Zm-.64-74-3.75-3.72,3.74-3.78L64,28.19Zm8.58,39.55L60,80.39,48.54,69,60,57.51l8.86,8.86L80.06,55.14,93.84,68.81l-13.72,14Zm27.48-1.68h7.8L85.72,88.41l-3.83-3.83Zm-.2-2.3L81.83,53.37l3.7-3.7L103.9,67.55Zm18.44,0h-7.13L87.3,47.9,91,44.16ZM89.26,42.4l-9.21,9.21L62,33.74l9.12-9.3ZM69.39,22.68,65.73,26.4,62,22.71,65.68,19Zm-9-8.91,3.5,3.47L60.23,21l-3.52-3.49ZM55,19.23l3.52,3.49-3.74,3.77L51.19,23Zm-5.53,5.52,9.09,9L25.62,67.33,16.21,58ZM23.87,69.12,20,73l-3.77-3.73,3.86-3.89Zm-9.43-9.39,3.92,3.9-3.86,3.9-3.95-3.91ZM5.17,69l3.62-3.61,4,3.92L9.12,73Zm5.72,5.72,3.62-3.65,3.78,3.74L14.67,78.5Zm5.55,5.55,9.2-9.39,33.49,33.34-9.28,9.47Zm35.18,35.18,3.71-3.78,3.57,3.54L55.15,119Zm8.79,8.79-3.49-3.49L60.67,117l3.53,3.5ZM66,118.71l-3.54-3.51,3.84-3.87,3.57,3.55Zm5.64-5.59-9-8.92L80.14,86.36l9.18,9.19ZM91.09,93.78l-3.6-3.6,20.14-20.32h7.56Z"/></svg>