<svg id="Layer_1" data-name="Layer 1" xmlns="http://www.w3.org/2000/svg" viewBox="0 0 118.71 118.44"><defs><style>.cls-1{fill:#bc392b;}.cls-2{fill:#fff;}</style></defs><polygon class="cls-1" points="89.42 32.62 78.33 43.66 94.06 59.4 78.32 75.14 89.31 86.09 116.31 59.46 89.42 32.62"/><polygon class="cls-2" points="79.79 74.86 85.24 80.72 104.31 59.88 93.42 60.15 79.79 74.86"/><polygon class="cls-2" points="89.42 33.36 114.67 57.97 105.49 58.6 85.33 38.72 89.42 33.36"/><path class="cls-2" d="M59.22.52.45,59.29l58.77,58.76,59.22-58.77ZM80.7,74.86,96.18,59.07,80.65,43.66,84.35,40,104,59.07,84.54,78.7Zm-13-13L58.8,70.67,47.36,59.23,58.8,47.79l8.86,8.86L78.88,45.42,92.66,59.09l-13.72,14Zm9.53,13.07L59.7,92.72,26.21,59.38l32.9-33.57,18,17.85-9.45,9.46L58.8,44.26l-15,15,15,15,8.86-8.85Zm1.68-33L60.86,24,70,14.72l18.1,18ZM64.55,16.69,60.83,13l3.67-3.7L68.2,13ZM62.8,18.47l-3.72,3.8-3.75-3.73,3.74-3.77Zm-9.25-1.69L50,13.27l3.76-3.76L57.29,13Zm3.78,7.27L24.44,57.61,15,48.25,48.24,15ZM17.18,53.92l-3.86,3.89-4-3.91L13.26,50ZM19,55.68l3.74,3.72-3.83,3.91-3.77-3.74Zm-1.84,9.41-3.62,3.69L9.71,65l3.62-3.65Zm7.35-3.93L58,94.5,48.67,104,15.26,70.55ZM54.15,102l3.57,3.54L54,109.27l-3.53-3.53Zm1.75-1.79,3.82-3.9,3.6,3.58-3.84,3.87Zm9.19,1.44,3.57,3.55L64.79,109l-3.54-3.52Zm-3.62-7.13L79,76.64l9.19,9.19L70.43,103.4Zm24.84-14L107.54,59,86.12,38.18l3.74-3.74,25,24.84-25,24.79ZM59.23,4.05l3.5,3.48-3.68,3.7L55.53,7.74ZM7.61,55.67l4,3.92L7.94,63.24,4,59.29ZM55.74,111l3.75-3.78,3.53,3.5-3.79,3.76Z"/><rect class="cls-2" x="94.16" y="57.83" width="22.82" height="2.3"/></svg>