<svg id="Layer_1" data-name="Layer 1" xmlns="http://www.w3.org/2000/svg" viewBox="0 0 118.71 118.44"><defs><style>.cls-1{fill:#8fc6f9;}.cls-2{fill:#c5e9ff;}.cls-3{fill:#fff;}.cls-4{fill:#e96344;}.cls-5{fill:#bc392b;}.cls-6{fill:#28364b;}</style></defs><rect class="cls-1" x="18.07" y="18.94" width="81.1" height="81.1" transform="translate(59.23 -24.02) rotate(45)"/><rect class="cls-2" x="51.73" y="5.41" width="15.39" height="15.39" transform="translate(92.18 64.4) rotate(-135)"/><rect class="cls-2" x="5.96" y="51.18" width="15.39" height="15.39" transform="translate(-18.32 110.17) rotate(-135)"/><rect class="cls-2" x="52" y="98.59" width="15.39" height="15.39" transform="translate(26.76 223.65) rotate(-135)"/><polygon class="cls-3" points="67.11 63.81 58.19 72.72 44.91 59.44 58.19 46.15 67.11 55.06 78.37 43.8 78.37 43.8 58.73 24.16 23.45 59.44 58.73 94.71 78.37 75.07 78.37 75.07 67.11 63.81"/><polygon class="cls-4" points="89.42 32.64 78.33 43.69 94.06 59.42 78.32 75.16 89.31 86.11 116.31 59.48 89.42 32.64"/><polygon class="cls-5" points="79.79 74.88 85.24 80.74 104.31 59.9 93.42 60.17 79.79 74.88"/><polygon class="cls-5" points="89.42 33.38 114.67 57.99 105.49 58.63 85.33 38.74 89.42 33.38"/><path class="cls-6" d="M118.43,59.31l-1.49-1.5h0l-1.37-1.37h0L59.22.54.45,59.31l58.77,58.77,56.34-55.92v0Zm-5.05-1.5h-7.13L86.12,38.21l3.74-3.74ZM59.7,92.74,26.21,59.4l32.9-33.56,18,17.85-9.45,9.45L58.8,44.28l-15,15,15,15,8.86-8.86,9.53,9.53Zm0,3.55,3.6,3.58-3.84,3.88-3.58-3.56Zm-.64-74-3.75-3.73,3.74-3.77L62.8,18.5Zm8.58,39.54L58.8,70.69,47.36,59.25,58.8,47.82l8.86,8.86L78.88,45.45,92.66,59.12l-13.72,14Zm13-18.15L84.35,40l18.36,17.89H94.94ZM95.13,60.16h7.81L84.54,78.72,80.7,74.88Zm-7-27.46-9.21,9.22-18-17.87L70,14.74ZM68.2,13l-3.65,3.73L60.83,13,64.5,9.31Zm-9-8.91,3.5,3.48-3.68,3.71L55.53,7.77ZM53.77,9.53,57.29,13,53.55,16.8,50,13.29Zm-5.53,5.53,9.09,9L24.44,57.64,15,48.27ZM22.69,59.42l-3.83,3.91L15.09,59.6,19,55.71ZM13.26,50l3.92,3.9-3.86,3.9-4-3.91ZM4,59.31l3.62-3.62,4,3.92L7.94,63.26ZM9.71,65l3.62-3.66,3.78,3.75-3.62,3.69Zm5.55,5.55,9.2-9.39L58,94.53,48.67,104Zm35.18,35.18L54.15,102l3.57,3.54L54,109.29Zm8.79,8.79-3.49-3.49,3.75-3.78,3.53,3.5ZM64.79,109l-3.54-3.51,3.84-3.87,3.57,3.55Zm5.64-5.59-9-8.92L79,76.67l9.19,9.18ZM89.91,84.09l-3.6-3.6,20.14-20.32H114Z"/></svg>