<?xml version="1.0" encoding="UTF-8" standalone="no"?>
<!DOCTYPE svg PUBLIC "-//W3C//DTD SVG 1.1//EN" "http://www.w3.org/Graphics/SVG/1.1/DTD/svg11.dtd">
<svg version="1.1" xmlns="http://www.w3.org/2000/svg" xmlns:xlink="http://www.w3.org/1999/xlink" preserveAspectRatio="xMidYMid meet" viewBox="0 0 256 256" width="256" height="256"><defs><path d="M178 78C178 105.6 155.6 128 128 128C100.4 128 78 105.6 78 78C78 50.4 100.4 28 128 28C155.6 28 178 50.4 178 78Z" id="a3MAM5l53w"></path><path d="M203 240.92C203 296.11 169.39 340.92 128 340.92C86.61 340.92 53 296.11 53 240.92C53 185.73 86.61 140.92 128 140.92C169.39 140.92 203 185.73 203 240.92Z" id="b37YVBc3RC"></path><path d="M78 208.49L178 208.49L178 286.27L78 286.27L78 208.49Z" id="a2ori0wc4B"></path></defs><g><g><g><use xlink:href="#a3MAM5l53w" opacity="1" fill="#575757" fill-opacity="1"></use></g><g><use xlink:href="#b37YVBc3RC" opacity="1" fill="#575757" fill-opacity="1"></use></g><g><use xlink:href="#a2ori0wc4B" opacity="1" fill="#575757" fill-opacity="1"></use></g></g></g></svg>